<svg xmlns="http://www.w3.org/2000/svg" width="100" height="100"><path d="M 50 0 C 77.614 0 100 22.386 100 50 C 100 77.614 77.614 100 50 100 C 22.386 100 0 77.614 0 50 C 0 22.386 22.386 0 50 0 Z" fill="rgba(50,54,72,1)"></path><g transform="translate(30.19 27.7)"><path d="M 40.677 36.352 C 41.78 37.209 41.978 38.798 41.121 39.9 C 40.659 40.529 40.126 41.104 39.536 41.614 C 37.718 43.184 35.347 44.132 32.756 44.127 C 28.928 44.12 25.592 42.033 23.807 38.94 C 21.63 42.953 17.345 44.585 12.269 44.576 C 6.432 44.565 -0.017 40.278 0 31.578 C 0.017 22.878 7.525 18.393 15.849 18.409 C 18.517 18.414 20.795 18.531 22.455 18.653 L 22.468 11.709 C 22.474 8.478 19.86 5.854 16.629 5.848 C 14.839 5.845 13.236 6.647 12.161 7.912 C 12.17 7.921 13.323 9.052 13.319 11.392 C 13.317 12.527 12.669 13.87 11.671 14.818 C 10.673 15.767 9.948 16.035 8.91 16.033 C 6.51 16.028 4.114 14.224 4.12 11.024 C 4.123 9.375 5.152 7.46 5.508 6.846 C 5.582 6.717 5.628 6.644 5.628 6.644 L 5.63 6.645 C 8.09 2.651 12.505 -0.009 17.54 0 C 25.244 0.015 31.478 6.272 31.463 13.976 L 31.426 33.775 C 31.422 35.763 33.031 37.378 35.019 37.382 C 35.526 37.382 36.009 37.279 36.447 37.09 C 36.885 36.902 36.761 36.941 36.908 36.851 C 37.055 36.761 37.368 36.529 37.566 36.332 L 37.582 36.348 C 38.473 35.659 39.748 35.628 40.677 36.352 Z M 15.73 38.095 C 18.552 38.1 20.826 36.717 22.454 34.504 C 22.437 34.257 22.426 34.009 22.426 33.758 L 22.444 24.103 C 21.193 24.028 19.516 23.965 17.363 23.961 C 13.221 23.953 8.822 26.356 8.812 31.556 C 8.804 35.606 12.23 38.088 15.73 38.095 Z" fill="rgba(0, 220, 237, 1.00)"></path><path d="M 35.936 24.678 C 37.427 24.681 38.638 23.475 38.641 21.983 C 38.644 20.492 37.438 19.281 35.947 19.278 C 34.455 19.276 33.244 20.482 33.241 21.973 C 33.239 23.464 34.445 24.675 35.936 24.678" fill="rgba(0, 220, 237, 1.00)"></path></g></svg>