<svg xmlns="http://www.w3.org/2000/svg" width="64" height="64"><path d="M 32 2 C 48.569 2 62 15.431 62 32 C 62 48.569 48.569 62 32 62 C 15.431 62 2 48.569 2 32 C 2 15.431 15.431 2 32 2 Z" fill="transparent" stroke-width="4" stroke="rgba(50, 54, 72, 1.00)"></path><g transform="translate(22 17)"><path d="M 20 20 L 10 30 L 0 20" fill="transparent" stroke-width="4" stroke="rgba(50, 54, 72, 1.00)" stroke-linecap="round" stroke-linejoin="round"></path><path d="M 10 30 L 10 8" fill="transparent" stroke-width="4" stroke="rgba(50, 54, 72, 1.00)" stroke-linecap="round"></path><path d="M 10 0 C 11.105 0 12 0.895 12 2 C 12 3.105 11.105 4 10 4 C 8.895 4 8 3.105 8 2 C 8 0.895 8.895 0 10 0 Z" fill="rgba(50, 54, 72, 1.00)"></path></g></svg>