<svg xmlns="http://www.w3.org/2000/svg" width="64" height="64"><g transform="translate(2 52)"><path d="M 43.305 10 L 9.696 10 C 4.341 10 0 5.659 0 0.305 L 0 0.161 C 0 0.072 0.073 0 0.161 0 L 52.839 0 C 52.928 0 53 0.072 53 0.161 L 53 0.305 C 53 5.659 48.659 10 43.305 10" fill="rgba(255,255,255,1)"></path><path d="M 43.466 10 L 20.001 10 C 13.001 10 5.466 5.731 5.466 0.466 L 5.466 0 L 53.001 0 L 53.001 0.466 C 53.001 5.731 48.732 10 43.466 10" fill="rgba(0,220,237,1)"></path><path d="M 43.305 10 L 9.696 10 C 4.341 10 0 5.659 0 0.305 L 0 0.161 C 0 0.072 0.073 0 0.161 0 L 52.839 0 C 52.928 0 53 0.072 53 0.161 L 53 0.305 C 53 5.659 48.659 10 43.305 10 Z" fill="transparent" stroke-width="4" stroke="rgba(50,54,72,1)" stroke-miterlimit="10"></path><path d="M 47 0 L 60 0" fill="transparent" stroke-width="4" stroke="rgba(50,54,72,1)" stroke-linecap="round" stroke-miterlimit="10"></path></g><g transform="translate(32 2)"><path d="M 0 0 L 0 38 L 22 38 Z" fill="#FFFFFF" stroke-width="4" stroke="#323648" stroke-linecap="round" stroke-linejoin="round"></path><path d="M 5 38 L 22 38 L 5.028 8 Z" fill="rgba(0,220,237,1)"></path><path d="M 0 0 L 0 38 L 22 38 Z" fill="transparent" stroke-width="4" stroke="#323648" stroke-linecap="round" stroke-linejoin="round"></path></g><g transform="translate(2 2)"><path d="M 30 0 L 30 44 L 0 44 Z" fill="rgba(255,255,255,1)" stroke-width="4" stroke="#323648" stroke-linecap="round" stroke-linejoin="round"></path><path d="M 9 44 L 30 12" fill="transparent" stroke-width="4" stroke="rgba(50,54,72,1)" stroke-miterlimit="10"></path><path d="M 18 44 L 30 25" fill="transparent" stroke-width="4" stroke="rgba(50,54,72,1)" stroke-miterlimit="10"></path></g><path d="M 32 52 L 32 2" fill="transparent" stroke-width="4" stroke="rgba(50,54,72,1)" stroke-linecap="round" stroke-miterlimit="10"></path></svg>