<svg xmlns="http://www.w3.org/2000/svg" width="64" height="64"><path d="M 56 26 L 32 2 L 8 26 L 8 62 L 56 62 Z" fill="rgba(255,255,255,1)"></path><path d="M 36 6 L 8 34 L 8 62 L 56 62 L 56 26 Z" fill="rgba(0,220,237,1)"></path><path d="M 56 26 L 32 2 L 8 26 L 8 62 L 56 62 Z" fill="transparent" stroke-width="4" stroke="rgba(50,54,72,1)" stroke-linecap="round" stroke-linejoin="round"></path><path d="M 27 62 L 37 62 L 37 40 L 27 40 Z" fill="#FFFFFF" stroke-width="4" stroke="rgba(50,54,72,1)" stroke-linecap="round" stroke-linejoin="round"></path><path d="M 37 26 C 37 23.238 34.762 21 32 21 C 29.238 21 27 23.238 27 26 C 27 28.762 29.238 31 32 31 C 34.762 31 37 28.762 37 26 Z" fill="#FFFFFF" stroke-width="4" stroke="rgba(50,54,72,1)" stroke-miterlimit="10"></path><path d="M 62 32 L 31.76 2 L 2 32" fill="transparent" stroke-width="4" stroke="rgba(50, 54, 72, 1.00)" stroke-linecap="round" stroke-linejoin="round"></path></svg>